solid ASCII
  facet normal -1.000000e+00 0.000000e+00 -2.523234e-17
    outer loop
      vertex   2.220446e-15 0.000000e+00 -7.900000e+01
      vertex   2.775558e-16 0.000000e+00 -2.000000e+00
      vertex   2.220446e-15 4.000000e+00 -7.900000e+01
    endloop
  endfacet
  facet normal -1.000000e+00 0.000000e+00 -2.523234e-17
    outer loop
      vertex   2.220446e-15 4.000000e+00 -7.900000e+01
      vertex   2.775558e-16 0.000000e+00 -2.000000e+00
      vertex   2.775558e-16 4.000000e+00 -2.000000e+00
    endloop
  endfacet
  facet normal -7.133918e-02 -0.000000e+00 -9.974521e-01
    outer loop
      vertex   2.000000e+00 4.000000e+00 -8.100000e+01
      vertex   2.000000e+00 0.000000e+00 -8.100000e+01
      vertex   1.715370e+00 4.000000e+00 -8.097964e+01
    endloop
  endfacet
  facet normal -7.133918e-02 -0.000000e+00 -9.974521e-01
    outer loop
      vertex   1.715370e+00 4.000000e+00 -8.097964e+01
      vertex   2.000000e+00 0.000000e+00 -8.100000e+01
      vertex   1.715370e+00 0.000000e+00 -8.097964e+01
    endloop
  endfacet
  facet normal -2.125653e-01 -0.000000e+00 -9.771469e-01
    outer loop
      vertex   1.715370e+00 4.000000e+00 -8.097964e+01
      vertex   1.715370e+00 0.000000e+00 -8.097964e+01
      vertex   1.436535e+00 4.000000e+00 -8.091899e+01
    endloop
  endfacet
  facet normal -2.125653e-01 -0.000000e+00 -9.771469e-01
    outer loop
      vertex   1.436535e+00 4.000000e+00 -8.091899e+01
      vertex   1.715370e+00 0.000000e+00 -8.097964e+01
      vertex   1.436535e+00 0.000000e+00 -8.091899e+01
    endloop
  endfacet
  facet normal -3.494642e-01 -0.000000e+00 -9.369497e-01
    outer loop
      vertex   1.436535e+00 4.000000e+00 -8.091899e+01
      vertex   1.436535e+00 0.000000e+00 -8.091899e+01
      vertex   1.169170e+00 4.000000e+00 -8.081926e+01
    endloop
  endfacet
  facet normal -3.494642e-01 -0.000000e+00 -9.369497e-01
    outer loop
      vertex   1.169170e+00 4.000000e+00 -8.081926e+01
      vertex   1.436535e+00 0.000000e+00 -8.091899e+01
      vertex   1.169170e+00 0.000000e+00 -8.081926e+01
    endloop
  endfacet
  facet normal -4.792490e-01 -0.000000e+00 -8.776790e-01
    outer loop
      vertex   1.169170e+00 4.000000e+00 -8.081926e+01
      vertex   1.169170e+00 0.000000e+00 -8.081926e+01
      vertex   9.187184e-01 4.000000e+00 -8.068251e+01
    endloop
  endfacet
  facet normal -4.792490e-01 -0.000000e+00 -8.776790e-01
    outer loop
      vertex   9.187184e-01 4.000000e+00 -8.068251e+01
      vertex   1.169170e+00 0.000000e+00 -8.081926e+01
      vertex   9.187184e-01 0.000000e+00 -8.068251e+01
    endloop
  endfacet
  facet normal -5.992777e-01 -0.000000e+00 -8.005412e-01
    outer loop
      vertex   9.187184e-01 4.000000e+00 -8.068251e+01
      vertex   9.187184e-01 0.000000e+00 -8.068251e+01
      vertex   6.902785e-01 4.000000e+00 -8.051150e+01
    endloop
  endfacet
  facet normal -5.992777e-01 -0.000000e+00 -8.005412e-01
    outer loop
      vertex   6.902785e-01 4.000000e+00 -8.051150e+01
      vertex   9.187184e-01 0.000000e+00 -8.068251e+01
      vertex   6.902785e-01 0.000000e+00 -8.051150e+01
    endloop
  endfacet
  facet normal -7.071068e-01 -0.000000e+00 -7.071068e-01
    outer loop
      vertex   6.902785e-01 4.000000e+00 -8.051150e+01
      vertex   6.902785e-01 0.000000e+00 -8.051150e+01
      vertex   4.885009e-01 4.000000e+00 -8.030972e+01
    endloop
  endfacet
  facet normal -7.071068e-01 -0.000000e+00 -7.071068e-01
    outer loop
      vertex   4.885009e-01 4.000000e+00 -8.030972e+01
      vertex   6.902785e-01 0.000000e+00 -8.051150e+01
      vertex   4.885009e-01 0.000000e+00 -8.030972e+01
    endloop
  endfacet
  facet normal -8.005412e-01 -0.000000e+00 -5.992777e-01
    outer loop
      vertex   4.885009e-01 4.000000e+00 -8.030972e+01
      vertex   4.885009e-01 0.000000e+00 -8.030972e+01
      vertex   3.174929e-01 4.000000e+00 -8.008128e+01
    endloop
  endfacet
  facet normal -8.005412e-01 -0.000000e+00 -5.992777e-01
    outer loop
      vertex   3.174929e-01 4.000000e+00 -8.008128e+01
      vertex   4.885009e-01 0.000000e+00 -8.030972e+01
      vertex   3.174929e-01 0.000000e+00 -8.008128e+01
    endloop
  endfacet
  facet normal -8.776790e-01 -0.000000e+00 -4.792490e-01
    outer loop
      vertex   3.174929e-01 4.000000e+00 -8.008128e+01
      vertex   3.174929e-01 0.000000e+00 -8.008128e+01
      vertex   1.807360e-01 4.000000e+00 -7.983083e+01
    endloop
  endfacet
  facet normal -8.776790e-01 -0.000000e+00 -4.792490e-01
    outer loop
      vertex   1.807360e-01 4.000000e+00 -7.983083e+01
      vertex   3.174929e-01 0.000000e+00 -8.008128e+01
      vertex   1.807360e-01 0.000000e+00 -7.983083e+01
    endloop
  endfacet
  facet normal -9.369497e-01 -0.000000e+00 -3.494642e-01
    outer loop
      vertex   1.807360e-01 4.000000e+00 -7.983083e+01
      vertex   1.807360e-01 0.000000e+00 -7.983083e+01
      vertex   8.101405e-02 4.000000e+00 -7.956347e+01
    endloop
  endfacet
  facet normal -9.369497e-01 -0.000000e+00 -3.494642e-01
    outer loop
      vertex   8.101405e-02 4.000000e+00 -7.956347e+01
      vertex   1.807360e-01 0.000000e+00 -7.983083e+01
      vertex   8.101405e-02 0.000000e+00 -7.956347e+01
    endloop
  endfacet
  facet normal -9.771469e-01 -0.000000e+00 -2.125653e-01
    outer loop
      vertex   8.101405e-02 4.000000e+00 -7.956347e+01
      vertex   8.101405e-02 0.000000e+00 -7.956347e+01
      vertex   2.035712e-02 4.000000e+00 -7.928463e+01
    endloop
  endfacet
  facet normal -9.771469e-01 -0.000000e+00 -2.125653e-01
    outer loop
      vertex   2.035712e-02 4.000000e+00 -7.928463e+01
      vertex   8.101405e-02 0.000000e+00 -7.956347e+01
      vertex   2.035712e-02 0.000000e+00 -7.928463e+01
    endloop
  endfacet
  facet normal -9.974521e-01 -0.000000e+00 -7.133918e-02
    outer loop
      vertex   2.035712e-02 4.000000e+00 -7.928463e+01
      vertex   2.035712e-02 0.000000e+00 -7.928463e+01
      vertex   2.220446e-15 4.000000e+00 -7.900000e+01
    endloop
  endfacet
  facet normal -9.974521e-01 -0.000000e+00 -7.133918e-02
    outer loop
      vertex   2.220446e-15 4.000000e+00 -7.900000e+01
      vertex   2.035712e-02 0.000000e+00 -7.928463e+01
      vertex   2.220446e-15 0.000000e+00 -7.900000e+01
    endloop
  endfacet
  facet normal 0.000000e+00 0.000000e+00 -1.000000e+00
    outer loop
      vertex   7.900000e+01 0.000000e+00 -8.100000e+01
      vertex   2.000000e+00 0.000000e+00 -8.100000e+01
      vertex   7.900000e+01 4.000000e+00 -8.100000e+01
    endloop
  endfacet
  facet normal -0.000000e+00 0.000000e+00 -1.000000e+00
    outer loop
      vertex   7.900000e+01 4.000000e+00 -8.100000e+01
      vertex   2.000000e+00 0.000000e+00 -8.100000e+01
      vertex   2.000000e+00 4.000000e+00 -8.100000e+01
    endloop
  endfacet
  facet normal 9.974521e-01 0.000000e+00 -7.133918e-02
    outer loop
      vertex   8.100000e+01 4.000000e+00 -7.900000e+01
      vertex   8.100000e+01 0.000000e+00 -7.900000e+01
      vertex   8.097964e+01 4.000000e+00 -7.928463e+01
    endloop
  endfacet
  facet normal 9.974521e-01 0.000000e+00 -7.133918e-02
    outer loop
      vertex   8.097964e+01 4.000000e+00 -7.928463e+01
      vertex   8.100000e+01 0.000000e+00 -7.900000e+01
      vertex   8.097964e+01 0.000000e+00 -7.928463e+01
    endloop
  endfacet
  facet normal 9.771469e-01 0.000000e+00 -2.125653e-01
    outer loop
      vertex   8.097964e+01 4.000000e+00 -7.928463e+01
      vertex   8.097964e+01 0.000000e+00 -7.928463e+01
      vertex   8.091899e+01 4.000000e+00 -7.956347e+01
    endloop
  endfacet
  facet normal 9.771469e-01 0.000000e+00 -2.125653e-01
    outer loop
      vertex   8.091899e+01 4.000000e+00 -7.956347e+01
      vertex   8.097964e+01 0.000000e+00 -7.928463e+01
      vertex   8.091899e+01 0.000000e+00 -7.956347e+01
    endloop
  endfacet
  facet normal 9.369497e-01 0.000000e+00 -3.494642e-01
    outer loop
      vertex   8.091899e+01 4.000000e+00 -7.956347e+01
      vertex   8.091899e+01 0.000000e+00 -7.956347e+01
      vertex   8.081926e+01 4.000000e+00 -7.983083e+01
    endloop
  endfacet
  facet normal 9.369497e-01 0.000000e+00 -3.494642e-01
    outer loop
      vertex   8.081926e+01 4.000000e+00 -7.983083e+01
      vertex   8.091899e+01 0.000000e+00 -7.956347e+01
      vertex   8.081926e+01 0.000000e+00 -7.983083e+01
    endloop
  endfacet
  facet normal 8.776790e-01 0.000000e+00 -4.792490e-01
    outer loop
      vertex   8.081926e+01 4.000000e+00 -7.983083e+01
      vertex   8.081926e+01 0.000000e+00 -7.983083e+01
      vertex   8.068251e+01 4.000000e+00 -8.008128e+01
    endloop
  endfacet
  facet normal 8.776790e-01 0.000000e+00 -4.792490e-01
    outer loop
      vertex   8.068251e+01 4.000000e+00 -8.008128e+01
      vertex   8.081926e+01 0.000000e+00 -7.983083e+01
      vertex   8.068251e+01 0.000000e+00 -8.008128e+01
    endloop
  endfacet
  facet normal 8.005412e-01 0.000000e+00 -5.992777e-01
    outer loop
      vertex   8.068251e+01 4.000000e+00 -8.008128e+01
      vertex   8.068251e+01 0.000000e+00 -8.008128e+01
      vertex   8.051150e+01 4.000000e+00 -8.030972e+01
    endloop
  endfacet
  facet normal 8.005412e-01 0.000000e+00 -5.992777e-01
    outer loop
      vertex   8.051150e+01 4.000000e+00 -8.030972e+01
      vertex   8.068251e+01 0.000000e+00 -8.008128e+01
      vertex   8.051150e+01 0.000000e+00 -8.030972e+01
    endloop
  endfacet
  facet normal 7.071068e-01 0.000000e+00 -7.071068e-01
    outer loop
      vertex   8.051150e+01 4.000000e+00 -8.030972e+01
      vertex   8.051150e+01 0.000000e+00 -8.030972e+01
      vertex   8.030972e+01 4.000000e+00 -8.051150e+01
    endloop
  endfacet
  facet normal 7.071068e-01 0.000000e+00 -7.071068e-01
    outer loop
      vertex   8.030972e+01 4.000000e+00 -8.051150e+01
      vertex   8.051150e+01 0.000000e+00 -8.030972e+01
      vertex   8.030972e+01 0.000000e+00 -8.051150e+01
    endloop
  endfacet
  facet normal 5.992777e-01 0.000000e+00 -8.005412e-01
    outer loop
      vertex   8.030972e+01 4.000000e+00 -8.051150e+01
      vertex   8.030972e+01 0.000000e+00 -8.051150e+01
      vertex   8.008128e+01 4.000000e+00 -8.068251e+01
    endloop
  endfacet
  facet normal 5.992777e-01 0.000000e+00 -8.005412e-01
    outer loop
      vertex   8.008128e+01 4.000000e+00 -8.068251e+01
      vertex   8.030972e+01 0.000000e+00 -8.051150e+01
      vertex   8.008128e+01 0.000000e+00 -8.068251e+01
    endloop
  endfacet
  facet normal 4.792490e-01 0.000000e+00 -8.776790e-01
    outer loop
      vertex   8.008128e+01 4.000000e+00 -8.068251e+01
      vertex   8.008128e+01 0.000000e+00 -8.068251e+01
      vertex   7.983083e+01 4.000000e+00 -8.081926e+01
    endloop
  endfacet
  facet normal 4.792490e-01 0.000000e+00 -8.776790e-01
    outer loop
      vertex   7.983083e+01 4.000000e+00 -8.081926e+01
      vertex   8.008128e+01 0.000000e+00 -8.068251e+01
      vertex   7.983083e+01 0.000000e+00 -8.081926e+01
    endloop
  endfacet
  facet normal 3.494642e-01 0.000000e+00 -9.369497e-01
    outer loop
      vertex   7.983083e+01 4.000000e+00 -8.081926e+01
      vertex   7.983083e+01 0.000000e+00 -8.081926e+01
      vertex   7.956347e+01 4.000000e+00 -8.091899e+01
    endloop
  endfacet
  facet normal 3.494642e-01 0.000000e+00 -9.369497e-01
    outer loop
      vertex   7.956347e+01 4.000000e+00 -8.091899e+01
      vertex   7.983083e+01 0.000000e+00 -8.081926e+01
      vertex   7.956347e+01 0.000000e+00 -8.091899e+01
    endloop
  endfacet
  facet normal 2.125653e-01 0.000000e+00 -9.771469e-01
    outer loop
      vertex   7.956347e+01 4.000000e+00 -8.091899e+01
      vertex   7.956347e+01 0.000000e+00 -8.091899e+01
      vertex   7.928463e+01 4.000000e+00 -8.097964e+01
    endloop
  endfacet
  facet normal 2.125653e-01 0.000000e+00 -9.771469e-01
    outer loop
      vertex   7.928463e+01 4.000000e+00 -8.097964e+01
      vertex   7.956347e+01 0.000000e+00 -8.091899e+01
      vertex   7.928463e+01 0.000000e+00 -8.097964e+01
    endloop
  endfacet
  facet normal 7.133918e-02 0.000000e+00 -9.974521e-01
    outer loop
      vertex   7.928463e+01 4.000000e+00 -8.097964e+01
      vertex   7.928463e+01 0.000000e+00 -8.097964e+01
      vertex   7.900000e+01 4.000000e+00 -8.100000e+01
    endloop
  endfacet
  facet normal 7.133918e-02 0.000000e+00 -9.974521e-01
    outer loop
      vertex   7.900000e+01 4.000000e+00 -8.100000e+01
      vertex   7.928463e+01 0.000000e+00 -8.097964e+01
      vertex   7.900000e+01 0.000000e+00 -8.100000e+01
    endloop
  endfacet
  facet normal 1.000000e+00 -0.000000e+00 0.000000e+00
    outer loop
      vertex   8.100000e+01 0.000000e+00 -2.000000e+00
      vertex   8.100000e+01 0.000000e+00 -7.900000e+01
      vertex   8.100000e+01 4.000000e+00 -2.000000e+00
    endloop
  endfacet
  facet normal 1.000000e+00 0.000000e+00 0.000000e+00
    outer loop
      vertex   8.100000e+01 4.000000e+00 -2.000000e+00
      vertex   8.100000e+01 0.000000e+00 -7.900000e+01
      vertex   8.100000e+01 4.000000e+00 -7.900000e+01
    endloop
  endfacet
  facet normal 7.133918e-02 0.000000e+00 9.974521e-01
    outer loop
      vertex   7.900000e+01 4.000000e+00 0.000000e+00
      vertex   7.900000e+01 0.000000e+00 0.000000e+00
      vertex   7.928463e+01 4.000000e+00 -2.035712e-02
    endloop
  endfacet
  facet normal 7.133918e-02 0.000000e+00 9.974521e-01
    outer loop
      vertex   7.928463e+01 4.000000e+00 -2.035712e-02
      vertex   7.900000e+01 0.000000e+00 0.000000e+00
      vertex   7.928463e+01 0.000000e+00 -2.035712e-02
    endloop
  endfacet
  facet normal 2.125653e-01 0.000000e+00 9.771469e-01
    outer loop
      vertex   7.928463e+01 4.000000e+00 -2.035712e-02
      vertex   7.928463e+01 0.000000e+00 -2.035712e-02
      vertex   7.956347e+01 4.000000e+00 -8.101405e-02
    endloop
  endfacet
  facet normal 2.125653e-01 0.000000e+00 9.771469e-01
    outer loop
      vertex   7.956347e+01 4.000000e+00 -8.101405e-02
      vertex   7.928463e+01 0.000000e+00 -2.035712e-02
      vertex   7.956347e+01 0.000000e+00 -8.101405e-02
    endloop
  endfacet
  facet normal 3.494642e-01 0.000000e+00 9.369497e-01
    outer loop
      vertex   7.956347e+01 4.000000e+00 -8.101405e-02
      vertex   7.956347e+01 0.000000e+00 -8.101405e-02
      vertex   7.983083e+01 4.000000e+00 -1.807360e-01
    endloop
  endfacet
  facet normal 3.494642e-01 0.000000e+00 9.369497e-01
    outer loop
      vertex   7.983083e+01 4.000000e+00 -1.807360e-01
      vertex   7.956347e+01 0.000000e+00 -8.101405e-02
      vertex   7.983083e+01 0.000000e+00 -1.807360e-01
    endloop
  endfacet
  facet normal 4.792490e-01 0.000000e+00 8.776790e-01
    outer loop
      vertex   7.983083e+01 4.000000e+00 -1.807360e-01
      vertex   7.983083e+01 0.000000e+00 -1.807360e-01
      vertex   8.008128e+01 4.000000e+00 -3.174929e-01
    endloop
  endfacet
  facet normal 4.792490e-01 0.000000e+00 8.776790e-01
    outer loop
      vertex   8.008128e+01 4.000000e+00 -3.174929e-01
      vertex   7.983083e+01 0.000000e+00 -1.807360e-01
      vertex   8.008128e+01 0.000000e+00 -3.174929e-01
    endloop
  endfacet
  facet normal 5.992777e-01 0.000000e+00 8.005412e-01
    outer loop
      vertex   8.008128e+01 4.000000e+00 -3.174929e-01
      vertex   8.008128e+01 0.000000e+00 -3.174929e-01
      vertex   8.030972e+01 4.000000e+00 -4.885009e-01
    endloop
  endfacet
  facet normal 5.992777e-01 0.000000e+00 8.005412e-01
    outer loop
      vertex   8.030972e+01 4.000000e+00 -4.885009e-01
      vertex   8.008128e+01 0.000000e+00 -3.174929e-01
      vertex   8.030972e+01 0.000000e+00 -4.885009e-01
    endloop
  endfacet
  facet normal 7.071068e-01 0.000000e+00 7.071068e-01
    outer loop
      vertex   8.030972e+01 4.000000e+00 -4.885009e-01
      vertex   8.030972e+01 0.000000e+00 -4.885009e-01
      vertex   8.051150e+01 4.000000e+00 -6.902785e-01
    endloop
  endfacet
  facet normal 7.071068e-01 0.000000e+00 7.071068e-01
    outer loop
      vertex   8.051150e+01 4.000000e+00 -6.902785e-01
      vertex   8.030972e+01 0.000000e+00 -4.885009e-01
      vertex   8.051150e+01 0.000000e+00 -6.902785e-01
    endloop
  endfacet
  facet normal 8.005412e-01 0.000000e+00 5.992777e-01
    outer loop
      vertex   8.051150e+01 4.000000e+00 -6.902785e-01
      vertex   8.051150e+01 0.000000e+00 -6.902785e-01
      vertex   8.068251e+01 4.000000e+00 -9.187184e-01
    endloop
  endfacet
  facet normal 8.005412e-01 0.000000e+00 5.992777e-01
    outer loop
      vertex   8.068251e+01 4.000000e+00 -9.187184e-01
      vertex   8.051150e+01 0.000000e+00 -6.902785e-01
      vertex   8.068251e+01 0.000000e+00 -9.187184e-01
    endloop
  endfacet
  facet normal 8.776790e-01 0.000000e+00 4.792490e-01
    outer loop
      vertex   8.068251e+01 4.000000e+00 -9.187184e-01
      vertex   8.068251e+01 0.000000e+00 -9.187184e-01
      vertex   8.081926e+01 4.000000e+00 -1.169170e+00
    endloop
  endfacet
  facet normal 8.776790e-01 0.000000e+00 4.792490e-01
    outer loop
      vertex   8.081926e+01 4.000000e+00 -1.169170e+00
      vertex   8.068251e+01 0.000000e+00 -9.187184e-01
      vertex   8.081926e+01 0.000000e+00 -1.169170e+00
    endloop
  endfacet
  facet normal 9.369497e-01 0.000000e+00 3.494642e-01
    outer loop
      vertex   8.081926e+01 4.000000e+00 -1.169170e+00
      vertex   8.081926e+01 0.000000e+00 -1.169170e+00
      vertex   8.091899e+01 4.000000e+00 -1.436535e+00
    endloop
  endfacet
  facet normal 9.369497e-01 0.000000e+00 3.494642e-01
    outer loop
      vertex   8.091899e+01 4.000000e+00 -1.436535e+00
      vertex   8.081926e+01 0.000000e+00 -1.169170e+00
      vertex   8.091899e+01 0.000000e+00 -1.436535e+00
    endloop
  endfacet
  facet normal 9.771469e-01 0.000000e+00 2.125653e-01
    outer loop
      vertex   8.091899e+01 4.000000e+00 -1.436535e+00
      vertex   8.091899e+01 0.000000e+00 -1.436535e+00
      vertex   8.097964e+01 4.000000e+00 -1.715370e+00
    endloop
  endfacet
  facet normal 9.771469e-01 0.000000e+00 2.125653e-01
    outer loop
      vertex   8.097964e+01 4.000000e+00 -1.715370e+00
      vertex   8.091899e+01 0.000000e+00 -1.436535e+00
      vertex   8.097964e+01 0.000000e+00 -1.715370e+00
    endloop
  endfacet
  facet normal 9.974521e-01 0.000000e+00 7.133918e-02
    outer loop
      vertex   8.097964e+01 4.000000e+00 -1.715370e+00
      vertex   8.097964e+01 0.000000e+00 -1.715370e+00
      vertex   8.100000e+01 4.000000e+00 -2.000000e+00
    endloop
  endfacet
  facet normal 9.974521e-01 0.000000e+00 7.133918e-02
    outer loop
      vertex   8.100000e+01 4.000000e+00 -2.000000e+00
      vertex   8.097964e+01 0.000000e+00 -1.715370e+00
      vertex   8.100000e+01 0.000000e+00 -2.000000e+00
    endloop
  endfacet
  facet normal 0.000000e+00 0.000000e+00 1.000000e+00
    outer loop
      vertex   2.000000e+00 0.000000e+00 0.000000e+00
      vertex   7.900000e+01 0.000000e+00 0.000000e+00
      vertex   2.000000e+00 4.000000e+00 0.000000e+00
    endloop
  endfacet
  facet normal -0.000000e+00 0.000000e+00 1.000000e+00
    outer loop
      vertex   2.000000e+00 4.000000e+00 0.000000e+00
      vertex   7.900000e+01 0.000000e+00 0.000000e+00
      vertex   7.900000e+01 4.000000e+00 0.000000e+00
    endloop
  endfacet
  facet normal -9.974521e-01 0.000000e+00 7.133918e-02
    outer loop
      vertex   2.775558e-16 4.000000e+00 -2.000000e+00
      vertex   2.775558e-16 0.000000e+00 -2.000000e+00
      vertex   2.035712e-02 4.000000e+00 -1.715370e+00
    endloop
  endfacet
  facet normal -9.974521e-01 0.000000e+00 7.133918e-02
    outer loop
      vertex   2.035712e-02 4.000000e+00 -1.715370e+00
      vertex   2.775558e-16 0.000000e+00 -2.000000e+00
      vertex   2.035712e-02 0.000000e+00 -1.715370e+00
    endloop
  endfacet
  facet normal -9.771469e-01 0.000000e+00 2.125653e-01
    outer loop
      vertex   2.035712e-02 4.000000e+00 -1.715370e+00
      vertex   2.035712e-02 0.000000e+00 -1.715370e+00
      vertex   8.101405e-02 4.000000e+00 -1.436535e+00
    endloop
  endfacet
  facet normal -9.771469e-01 0.000000e+00 2.125653e-01
    outer loop
      vertex   8.101405e-02 4.000000e+00 -1.436535e+00
      vertex   2.035712e-02 0.000000e+00 -1.715370e+00
      vertex   8.101405e-02 0.000000e+00 -1.436535e+00
    endloop
  endfacet
  facet normal -9.369497e-01 0.000000e+00 3.494642e-01
    outer loop
      vertex   8.101405e-02 4.000000e+00 -1.436535e+00
      vertex   8.101405e-02 0.000000e+00 -1.436535e+00
      vertex   1.807360e-01 4.000000e+00 -1.169170e+00
    endloop
  endfacet
  facet normal -9.369497e-01 0.000000e+00 3.494642e-01
    outer loop
      vertex   1.807360e-01 4.000000e+00 -1.169170e+00
      vertex   8.101405e-02 0.000000e+00 -1.436535e+00
      vertex   1.807360e-01 0.000000e+00 -1.169170e+00
    endloop
  endfacet
  facet normal -8.776790e-01 0.000000e+00 4.792490e-01
    outer loop
      vertex   1.807360e-01 4.000000e+00 -1.169170e+00
      vertex   1.807360e-01 0.000000e+00 -1.169170e+00
      vertex   3.174929e-01 4.000000e+00 -9.187184e-01
    endloop
  endfacet
  facet normal -8.776790e-01 0.000000e+00 4.792490e-01
    outer loop
      vertex   3.174929e-01 4.000000e+00 -9.187184e-01
      vertex   1.807360e-01 0.000000e+00 -1.169170e+00
      vertex   3.174929e-01 0.000000e+00 -9.187184e-01
    endloop
  endfacet
  facet normal -8.005412e-01 0.000000e+00 5.992777e-01
    outer loop
      vertex   3.174929e-01 4.000000e+00 -9.187184e-01
      vertex   3.174929e-01 0.000000e+00 -9.187184e-01
      vertex   4.885009e-01 4.000000e+00 -6.902785e-01
    endloop
  endfacet
  facet normal -8.005412e-01 0.000000e+00 5.992777e-01
    outer loop
      vertex   4.885009e-01 4.000000e+00 -6.902785e-01
      vertex   3.174929e-01 0.000000e+00 -9.187184e-01
      vertex   4.885009e-01 0.000000e+00 -6.902785e-01
    endloop
  endfacet
  facet normal -7.071068e-01 0.000000e+00 7.071068e-01
    outer loop
      vertex   4.885009e-01 4.000000e+00 -6.902785e-01
      vertex   4.885009e-01 0.000000e+00 -6.902785e-01
      vertex   6.902785e-01 4.000000e+00 -4.885009e-01
    endloop
  endfacet
  facet normal -7.071068e-01 0.000000e+00 7.071068e-01
    outer loop
      vertex   6.902785e-01 4.000000e+00 -4.885009e-01
      vertex   4.885009e-01 0.000000e+00 -6.902785e-01
      vertex   6.902785e-01 0.000000e+00 -4.885009e-01
    endloop
  endfacet
  facet normal -5.992777e-01 0.000000e+00 8.005412e-01
    outer loop
      vertex   6.902785e-01 4.000000e+00 -4.885009e-01
      vertex   6.902785e-01 0.000000e+00 -4.885009e-01
      vertex   9.187184e-01 4.000000e+00 -3.174929e-01
    endloop
  endfacet
  facet normal -5.992777e-01 0.000000e+00 8.005412e-01
    outer loop
      vertex   9.187184e-01 4.000000e+00 -3.174929e-01
      vertex   6.902785e-01 0.000000e+00 -4.885009e-01
      vertex   9.187184e-01 0.000000e+00 -3.174929e-01
    endloop
  endfacet
  facet normal -4.792490e-01 0.000000e+00 8.776790e-01
    outer loop
      vertex   9.187184e-01 4.000000e+00 -3.174929e-01
      vertex   9.187184e-01 0.000000e+00 -3.174929e-01
      vertex   1.169170e+00 4.000000e+00 -1.807360e-01
    endloop
  endfacet
  facet normal -4.792490e-01 0.000000e+00 8.776790e-01
    outer loop
      vertex   1.169170e+00 4.000000e+00 -1.807360e-01
      vertex   9.187184e-01 0.000000e+00 -3.174929e-01
      vertex   1.169170e+00 0.000000e+00 -1.807360e-01
    endloop
  endfacet
  facet normal -3.494642e-01 0.000000e+00 9.369497e-01
    outer loop
      vertex   1.169170e+00 4.000000e+00 -1.807360e-01
      vertex   1.169170e+00 0.000000e+00 -1.807360e-01
      vertex   1.436535e+00 4.000000e+00 -8.101405e-02
    endloop
  endfacet
  facet normal -3.494642e-01 0.000000e+00 9.369497e-01
    outer loop
      vertex   1.436535e+00 4.000000e+00 -8.101405e-02
      vertex   1.169170e+00 0.000000e+00 -1.807360e-01
      vertex   1.436535e+00 0.000000e+00 -8.101405e-02
    endloop
  endfacet
  facet normal -2.125653e-01 0.000000e+00 9.771469e-01
    outer loop
      vertex   1.436535e+00 4.000000e+00 -8.101405e-02
      vertex   1.436535e+00 0.000000e+00 -8.101405e-02
      vertex   1.715370e+00 4.000000e+00 -2.035712e-02
    endloop
  endfacet
  facet normal -2.125653e-01 0.000000e+00 9.771469e-01
    outer loop
      vertex   1.715370e+00 4.000000e+00 -2.035712e-02
      vertex   1.436535e+00 0.000000e+00 -8.101405e-02
      vertex   1.715370e+00 0.000000e+00 -2.035712e-02
    endloop
  endfacet
  facet normal -7.133918e-02 0.000000e+00 9.974521e-01
    outer loop
      vertex   1.715370e+00 4.000000e+00 -2.035712e-02
      vertex   1.715370e+00 0.000000e+00 -2.035712e-02
      vertex   2.000000e+00 4.000000e+00 0.000000e+00
    endloop
  endfacet
  facet normal -7.133918e-02 0.000000e+00 9.974521e-01
    outer loop
      vertex   2.000000e+00 4.000000e+00 0.000000e+00
      vertex   1.715370e+00 0.000000e+00 -2.035712e-02
      vertex   2.000000e+00 0.000000e+00 0.000000e+00
    endloop
  endfacet
  facet normal -0.000000e+00 1.000000e+00 0.000000e+00
    outer loop
      vertex   2.035712e-02 4.000000e+00 -1.715370e+00
      vertex   8.101405e-02 4.000000e+00 -1.436535e+00
      vertex   2.775558e-16 4.000000e+00 -2.000000e+00
    endloop
  endfacet
  facet normal 0.000000e+00 1.000000e+00 0.000000e+00
    outer loop
      vertex   2.775558e-16 4.000000e+00 -2.000000e+00
      vertex   8.101405e-02 4.000000e+00 -1.436535e+00
      vertex   1.807360e-01 4.000000e+00 -1.169170e+00
    endloop
  endfacet
  facet normal 0.000000e+00 1.000000e+00 0.000000e+00
    outer loop
      vertex   2.775558e-16 4.000000e+00 -2.000000e+00
      vertex   1.807360e-01 4.000000e+00 -1.169170e+00
      vertex   3.174929e-01 4.000000e+00 -9.187184e-01
    endloop
  endfacet
  facet normal -0.000000e+00 1.000000e+00 0.000000e+00
    outer loop
      vertex   3.174929e-01 4.000000e+00 -9.187184e-01
      vertex   4.885009e-01 4.000000e+00 -6.902785e-01
      vertex   2.775558e-16 4.000000e+00 -2.000000e+00
    endloop
  endfacet
  facet normal 0.000000e+00 1.000000e+00 0.000000e+00
    outer loop
      vertex   2.775558e-16 4.000000e+00 -2.000000e+00
      vertex   4.885009e-01 4.000000e+00 -6.902785e-01
      vertex   6.902785e-01 4.000000e+00 -4.885009e-01
    endloop
  endfacet
  facet normal 0.000000e+00 1.000000e+00 0.000000e+00
    outer loop
      vertex   2.775558e-16 4.000000e+00 -2.000000e+00
      vertex   6.902785e-01 4.000000e+00 -4.885009e-01
      vertex   9.187184e-01 4.000000e+00 -3.174929e-01
    endloop
  endfacet
  facet normal -0.000000e+00 1.000000e+00 0.000000e+00
    outer loop
      vertex   9.187184e-01 4.000000e+00 -3.174929e-01
      vertex   1.169170e+00 4.000000e+00 -1.807360e-01
      vertex   2.775558e-16 4.000000e+00 -2.000000e+00
    endloop
  endfacet
  facet normal 0.000000e+00 1.000000e+00 0.000000e+00
    outer loop
      vertex   2.775558e-16 4.000000e+00 -2.000000e+00
      vertex   1.169170e+00 4.000000e+00 -1.807360e-01
      vertex   1.436535e+00 4.000000e+00 -8.101405e-02
    endloop
  endfacet
  facet normal 0.000000e+00 1.000000e+00 0.000000e+00
    outer loop
      vertex   2.775558e-16 4.000000e+00 -2.000000e+00
      vertex   1.436535e+00 4.000000e+00 -8.101405e-02
      vertex   1.715370e+00 4.000000e+00 -2.035712e-02
    endloop
  endfacet
  facet normal -0.000000e+00 1.000000e+00 0.000000e+00
    outer loop
      vertex   1.715370e+00 4.000000e+00 -2.035712e-02
      vertex   2.000000e+00 4.000000e+00 0.000000e+00
      vertex   2.775558e-16 4.000000e+00 -2.000000e+00
    endloop
  endfacet
  facet normal 0.000000e+00 1.000000e+00 0.000000e+00
    outer loop
      vertex   2.775558e-16 4.000000e+00 -2.000000e+00
      vertex   2.000000e+00 4.000000e+00 0.000000e+00
      vertex   7.900000e+01 4.000000e+00 0.000000e+00
    endloop
  endfacet
  facet normal -0.000000e+00 1.000000e+00 0.000000e+00
    outer loop
      vertex   2.775558e-16 4.000000e+00 -2.000000e+00
      vertex   7.900000e+01 4.000000e+00 0.000000e+00
      vertex   2.220446e-15 4.000000e+00 -7.900000e+01
    endloop
  endfacet
  facet normal 0.000000e+00 1.000000e+00 0.000000e+00
    outer loop
      vertex   2.220446e-15 4.000000e+00 -7.900000e+01
      vertex   7.900000e+01 4.000000e+00 0.000000e+00
      vertex   8.100000e+01 4.000000e+00 -2.000000e+00
    endloop
  endfacet
  facet normal -0.000000e+00 1.000000e+00 0.000000e+00
    outer loop
      vertex   2.220446e-15 4.000000e+00 -7.900000e+01
      vertex   8.100000e+01 4.000000e+00 -2.000000e+00
      vertex   2.000000e+00 4.000000e+00 -8.100000e+01
    endloop
  endfacet
  facet normal 0.000000e+00 1.000000e+00 0.000000e+00
    outer loop
      vertex   2.000000e+00 4.000000e+00 -8.100000e+01
      vertex   8.100000e+01 4.000000e+00 -2.000000e+00
      vertex   8.100000e+01 4.000000e+00 -7.900000e+01
    endloop
  endfacet
  facet normal 0.000000e+00 1.000000e+00 0.000000e+00
    outer loop
      vertex   2.000000e+00 4.000000e+00 -8.100000e+01
      vertex   8.100000e+01 4.000000e+00 -7.900000e+01
      vertex   7.900000e+01 4.000000e+00 -8.100000e+01
    endloop
  endfacet
  facet normal 0.000000e+00 1.000000e+00 0.000000e+00
    outer loop
      vertex   7.900000e+01 4.000000e+00 -8.100000e+01
      vertex   8.100000e+01 4.000000e+00 -7.900000e+01
      vertex   8.097964e+01 4.000000e+00 -7.928463e+01
    endloop
  endfacet
  facet normal 0.000000e+00 1.000000e+00 0.000000e+00
    outer loop
      vertex   7.900000e+01 4.000000e+00 -8.100000e+01
      vertex   8.097964e+01 4.000000e+00 -7.928463e+01
      vertex   8.091899e+01 4.000000e+00 -7.956347e+01
    endloop
  endfacet
  facet normal 0.000000e+00 1.000000e+00 0.000000e+00
    outer loop
      vertex   7.900000e+01 4.000000e+00 0.000000e+00
      vertex   7.928463e+01 4.000000e+00 -2.035712e-02
      vertex   8.100000e+01 4.000000e+00 -2.000000e+00
    endloop
  endfacet
  facet normal 0.000000e+00 1.000000e+00 0.000000e+00
    outer loop
      vertex   8.100000e+01 4.000000e+00 -2.000000e+00
      vertex   7.928463e+01 4.000000e+00 -2.035712e-02
      vertex   7.956347e+01 4.000000e+00 -8.101405e-02
    endloop
  endfacet
  facet normal 0.000000e+00 1.000000e+00 0.000000e+00
    outer loop
      vertex   8.100000e+01 4.000000e+00 -2.000000e+00
      vertex   7.956347e+01 4.000000e+00 -8.101405e-02
      vertex   7.983083e+01 4.000000e+00 -1.807360e-01
    endloop
  endfacet
  facet normal 0.000000e+00 1.000000e+00 0.000000e+00
    outer loop
      vertex   7.983083e+01 4.000000e+00 -1.807360e-01
      vertex   8.008128e+01 4.000000e+00 -3.174929e-01
      vertex   8.100000e+01 4.000000e+00 -2.000000e+00
    endloop
  endfacet
  facet normal 0.000000e+00 1.000000e+00 0.000000e+00
    outer loop
      vertex   8.100000e+01 4.000000e+00 -2.000000e+00
      vertex   8.008128e+01 4.000000e+00 -3.174929e-01
      vertex   8.030972e+01 4.000000e+00 -4.885009e-01
    endloop
  endfacet
  facet normal 0.000000e+00 1.000000e+00 0.000000e+00
    outer loop
      vertex   8.100000e+01 4.000000e+00 -2.000000e+00
      vertex   8.030972e+01 4.000000e+00 -4.885009e-01
      vertex   8.051150e+01 4.000000e+00 -6.902785e-01
    endloop
  endfacet
  facet normal 0.000000e+00 1.000000e+00 0.000000e+00
    outer loop
      vertex   8.051150e+01 4.000000e+00 -6.902785e-01
      vertex   8.068251e+01 4.000000e+00 -9.187184e-01
      vertex   8.100000e+01 4.000000e+00 -2.000000e+00
    endloop
  endfacet
  facet normal 0.000000e+00 1.000000e+00 0.000000e+00
    outer loop
      vertex   8.100000e+01 4.000000e+00 -2.000000e+00
      vertex   8.068251e+01 4.000000e+00 -9.187184e-01
      vertex   8.081926e+01 4.000000e+00 -1.169170e+00
    endloop
  endfacet
  facet normal 0.000000e+00 1.000000e+00 0.000000e+00
    outer loop
      vertex   8.100000e+01 4.000000e+00 -2.000000e+00
      vertex   8.081926e+01 4.000000e+00 -1.169170e+00
      vertex   8.091899e+01 4.000000e+00 -1.436535e+00
    endloop
  endfacet
  facet normal 0.000000e+00 1.000000e+00 0.000000e+00
    outer loop
      vertex   8.091899e+01 4.000000e+00 -1.436535e+00
      vertex   8.097964e+01 4.000000e+00 -1.715370e+00
      vertex   8.100000e+01 4.000000e+00 -2.000000e+00
    endloop
  endfacet
  facet normal 0.000000e+00 1.000000e+00 0.000000e+00
    outer loop
      vertex   8.091899e+01 4.000000e+00 -7.956347e+01
      vertex   8.081926e+01 4.000000e+00 -7.983083e+01
      vertex   7.900000e+01 4.000000e+00 -8.100000e+01
    endloop
  endfacet
  facet normal 0.000000e+00 1.000000e+00 0.000000e+00
    outer loop
      vertex   7.900000e+01 4.000000e+00 -8.100000e+01
      vertex   8.081926e+01 4.000000e+00 -7.983083e+01
      vertex   8.068251e+01 4.000000e+00 -8.008128e+01
    endloop
  endfacet
  facet normal 0.000000e+00 1.000000e+00 0.000000e+00
    outer loop
      vertex   7.900000e+01 4.000000e+00 -8.100000e+01
      vertex   8.068251e+01 4.000000e+00 -8.008128e+01
      vertex   8.051150e+01 4.000000e+00 -8.030972e+01
    endloop
  endfacet
  facet normal 0.000000e+00 1.000000e+00 0.000000e+00
    outer loop
      vertex   8.051150e+01 4.000000e+00 -8.030972e+01
      vertex   8.030972e+01 4.000000e+00 -8.051150e+01
      vertex   7.900000e+01 4.000000e+00 -8.100000e+01
    endloop
  endfacet
  facet normal 0.000000e+00 1.000000e+00 0.000000e+00
    outer loop
      vertex   7.900000e+01 4.000000e+00 -8.100000e+01
      vertex   8.030972e+01 4.000000e+00 -8.051150e+01
      vertex   8.008128e+01 4.000000e+00 -8.068251e+01
    endloop
  endfacet
  facet normal 0.000000e+00 1.000000e+00 0.000000e+00
    outer loop
      vertex   7.900000e+01 4.000000e+00 -8.100000e+01
      vertex   8.008128e+01 4.000000e+00 -8.068251e+01
      vertex   7.983083e+01 4.000000e+00 -8.081926e+01
    endloop
  endfacet
  facet normal 0.000000e+00 1.000000e+00 0.000000e+00
    outer loop
      vertex   7.983083e+01 4.000000e+00 -8.081926e+01
      vertex   7.956347e+01 4.000000e+00 -8.091899e+01
      vertex   7.900000e+01 4.000000e+00 -8.100000e+01
    endloop
  endfacet
  facet normal 0.000000e+00 1.000000e+00 0.000000e+00
    outer loop
      vertex   7.900000e+01 4.000000e+00 -8.100000e+01
      vertex   7.956347e+01 4.000000e+00 -8.091899e+01
      vertex   7.928463e+01 4.000000e+00 -8.097964e+01
    endloop
  endfacet
  facet normal -0.000000e+00 1.000000e+00 -0.000000e+00
    outer loop
      vertex   1.715370e+00 4.000000e+00 -8.097964e+01
      vertex   1.436535e+00 4.000000e+00 -8.091899e+01
      vertex   2.000000e+00 4.000000e+00 -8.100000e+01
    endloop
  endfacet
  facet normal 0.000000e+00 1.000000e+00 0.000000e+00
    outer loop
      vertex   2.000000e+00 4.000000e+00 -8.100000e+01
      vertex   1.436535e+00 4.000000e+00 -8.091899e+01
      vertex   1.169170e+00 4.000000e+00 -8.081926e+01
    endloop
  endfacet
  facet normal 0.000000e+00 1.000000e+00 0.000000e+00
    outer loop
      vertex   2.000000e+00 4.000000e+00 -8.100000e+01
      vertex   1.169170e+00 4.000000e+00 -8.081926e+01
      vertex   9.187184e-01 4.000000e+00 -8.068251e+01
    endloop
  endfacet
  facet normal -0.000000e+00 1.000000e+00 -0.000000e+00
    outer loop
      vertex   9.187184e-01 4.000000e+00 -8.068251e+01
      vertex   6.902785e-01 4.000000e+00 -8.051150e+01
      vertex   2.000000e+00 4.000000e+00 -8.100000e+01
    endloop
  endfacet
  facet normal 0.000000e+00 1.000000e+00 0.000000e+00
    outer loop
      vertex   2.000000e+00 4.000000e+00 -8.100000e+01
      vertex   6.902785e-01 4.000000e+00 -8.051150e+01
      vertex   4.885009e-01 4.000000e+00 -8.030972e+01
    endloop
  endfacet
  facet normal 0.000000e+00 1.000000e+00 0.000000e+00
    outer loop
      vertex   2.000000e+00 4.000000e+00 -8.100000e+01
      vertex   4.885009e-01 4.000000e+00 -8.030972e+01
      vertex   3.174929e-01 4.000000e+00 -8.008128e+01
    endloop
  endfacet
  facet normal -0.000000e+00 1.000000e+00 -0.000000e+00
    outer loop
      vertex   3.174929e-01 4.000000e+00 -8.008128e+01
      vertex   1.807360e-01 4.000000e+00 -7.983083e+01
      vertex   2.000000e+00 4.000000e+00 -8.100000e+01
    endloop
  endfacet
  facet normal 0.000000e+00 1.000000e+00 0.000000e+00
    outer loop
      vertex   2.000000e+00 4.000000e+00 -8.100000e+01
      vertex   1.807360e-01 4.000000e+00 -7.983083e+01
      vertex   8.101405e-02 4.000000e+00 -7.956347e+01
    endloop
  endfacet
  facet normal 0.000000e+00 1.000000e+00 0.000000e+00
    outer loop
      vertex   2.000000e+00 4.000000e+00 -8.100000e+01
      vertex   8.101405e-02 4.000000e+00 -7.956347e+01
      vertex   2.035712e-02 4.000000e+00 -7.928463e+01
    endloop
  endfacet
  facet normal -0.000000e+00 1.000000e+00 -0.000000e+00
    outer loop
      vertex   2.035712e-02 4.000000e+00 -7.928463e+01
      vertex   2.220446e-15 4.000000e+00 -7.900000e+01
      vertex   2.000000e+00 4.000000e+00 -8.100000e+01
    endloop
  endfacet
  facet normal 0.000000e+00 -1.000000e+00 -0.000000e+00
    outer loop
      vertex   1.715370e+00 0.000000e+00 -2.035712e-02
      vertex   2.775558e-16 0.000000e+00 -2.000000e+00
      vertex   2.000000e+00 0.000000e+00 0.000000e+00
    endloop
  endfacet
  facet normal 0.000000e+00 -1.000000e+00 -0.000000e+00
    outer loop
      vertex   2.000000e+00 0.000000e+00 0.000000e+00
      vertex   2.775558e-16 0.000000e+00 -2.000000e+00
      vertex   8.100000e+01 0.000000e+00 -7.900000e+01
    endloop
  endfacet
  facet normal 0.000000e+00 -1.000000e+00 0.000000e+00
    outer loop
      vertex   2.000000e+00 0.000000e+00 0.000000e+00
      vertex   8.100000e+01 0.000000e+00 -7.900000e+01
      vertex   8.100000e+01 0.000000e+00 -2.000000e+00
    endloop
  endfacet
  facet normal 0.000000e+00 -1.000000e+00 0.000000e+00
    outer loop
      vertex   1.715370e+00 0.000000e+00 -2.035712e-02
      vertex   1.436535e+00 0.000000e+00 -8.101405e-02
      vertex   2.775558e-16 0.000000e+00 -2.000000e+00
    endloop
  endfacet
  facet normal 0.000000e+00 -1.000000e+00 0.000000e+00
    outer loop
      vertex   2.775558e-16 0.000000e+00 -2.000000e+00
      vertex   1.436535e+00 0.000000e+00 -8.101405e-02
      vertex   1.169170e+00 0.000000e+00 -1.807360e-01
    endloop
  endfacet
  facet normal 0.000000e+00 -1.000000e+00 0.000000e+00
    outer loop
      vertex   2.775558e-16 0.000000e+00 -2.000000e+00
      vertex   1.169170e+00 0.000000e+00 -1.807360e-01
      vertex   9.187184e-01 0.000000e+00 -3.174929e-01
    endloop
  endfacet
  facet normal 0.000000e+00 -1.000000e+00 0.000000e+00
    outer loop
      vertex   9.187184e-01 0.000000e+00 -3.174929e-01
      vertex   6.902785e-01 0.000000e+00 -4.885009e-01
      vertex   2.775558e-16 0.000000e+00 -2.000000e+00
    endloop
  endfacet
  facet normal 0.000000e+00 -1.000000e+00 0.000000e+00
    outer loop
      vertex   2.775558e-16 0.000000e+00 -2.000000e+00
      vertex   6.902785e-01 0.000000e+00 -4.885009e-01
      vertex   4.885009e-01 0.000000e+00 -6.902785e-01
    endloop
  endfacet
  facet normal 0.000000e+00 -1.000000e+00 0.000000e+00
    outer loop
      vertex   2.775558e-16 0.000000e+00 -2.000000e+00
      vertex   4.885009e-01 0.000000e+00 -6.902785e-01
      vertex   3.174929e-01 0.000000e+00 -9.187184e-01
    endloop
  endfacet
  facet normal 0.000000e+00 -1.000000e+00 0.000000e+00
    outer loop
      vertex   3.174929e-01 0.000000e+00 -9.187184e-01
      vertex   1.807360e-01 0.000000e+00 -1.169170e+00
      vertex   2.775558e-16 0.000000e+00 -2.000000e+00
    endloop
  endfacet
  facet normal 0.000000e+00 -1.000000e+00 0.000000e+00
    outer loop
      vertex   2.775558e-16 0.000000e+00 -2.000000e+00
      vertex   1.807360e-01 0.000000e+00 -1.169170e+00
      vertex   8.101405e-02 0.000000e+00 -1.436535e+00
    endloop
  endfacet
  facet normal 0.000000e+00 -1.000000e+00 0.000000e+00
    outer loop
      vertex   2.775558e-16 0.000000e+00 -2.000000e+00
      vertex   8.101405e-02 0.000000e+00 -1.436535e+00
      vertex   2.035712e-02 0.000000e+00 -1.715370e+00
    endloop
  endfacet
  facet normal -0.000000e+00 -1.000000e+00 0.000000e+00
    outer loop
      vertex   8.100000e+01 0.000000e+00 -7.900000e+01
      vertex   2.775558e-16 0.000000e+00 -2.000000e+00
      vertex   7.900000e+01 0.000000e+00 -8.100000e+01
    endloop
  endfacet
  facet normal 0.000000e+00 -1.000000e+00 0.000000e+00
    outer loop
      vertex   7.900000e+01 0.000000e+00 -8.100000e+01
      vertex   2.775558e-16 0.000000e+00 -2.000000e+00
      vertex   2.220446e-15 0.000000e+00 -7.900000e+01
    endloop
  endfacet
  facet normal 0.000000e+00 -1.000000e+00 0.000000e+00
    outer loop
      vertex   7.900000e+01 0.000000e+00 -8.100000e+01
      vertex   2.220446e-15 0.000000e+00 -7.900000e+01
      vertex   2.000000e+00 0.000000e+00 -8.100000e+01
    endloop
  endfacet
  facet normal 0.000000e+00 -1.000000e+00 0.000000e+00
    outer loop
      vertex   2.000000e+00 0.000000e+00 -8.100000e+01
      vertex   2.220446e-15 0.000000e+00 -7.900000e+01
      vertex   2.035712e-02 0.000000e+00 -7.928463e+01
    endloop
  endfacet
  facet normal 0.000000e+00 -1.000000e+00 0.000000e+00
    outer loop
      vertex   2.000000e+00 0.000000e+00 -8.100000e+01
      vertex   2.035712e-02 0.000000e+00 -7.928463e+01
      vertex   8.101405e-02 0.000000e+00 -7.956347e+01
    endloop
  endfacet
  facet normal 0.000000e+00 -1.000000e+00 0.000000e+00
    outer loop
      vertex   8.101405e-02 0.000000e+00 -7.956347e+01
      vertex   1.807360e-01 0.000000e+00 -7.983083e+01
      vertex   2.000000e+00 0.000000e+00 -8.100000e+01
    endloop
  endfacet
  facet normal 0.000000e+00 -1.000000e+00 0.000000e+00
    outer loop
      vertex   2.000000e+00 0.000000e+00 -8.100000e+01
      vertex   1.807360e-01 0.000000e+00 -7.983083e+01
      vertex   3.174929e-01 0.000000e+00 -8.008128e+01
    endloop
  endfacet
  facet normal 0.000000e+00 -1.000000e+00 0.000000e+00
    outer loop
      vertex   2.000000e+00 0.000000e+00 -8.100000e+01
      vertex   3.174929e-01 0.000000e+00 -8.008128e+01
      vertex   4.885009e-01 0.000000e+00 -8.030972e+01
    endloop
  endfacet
  facet normal 0.000000e+00 -1.000000e+00 0.000000e+00
    outer loop
      vertex   4.885009e-01 0.000000e+00 -8.030972e+01
      vertex   6.902785e-01 0.000000e+00 -8.051150e+01
      vertex   2.000000e+00 0.000000e+00 -8.100000e+01
    endloop
  endfacet
  facet normal 0.000000e+00 -1.000000e+00 0.000000e+00
    outer loop
      vertex   2.000000e+00 0.000000e+00 -8.100000e+01
      vertex   6.902785e-01 0.000000e+00 -8.051150e+01
      vertex   9.187184e-01 0.000000e+00 -8.068251e+01
    endloop
  endfacet
  facet normal 0.000000e+00 -1.000000e+00 0.000000e+00
    outer loop
      vertex   2.000000e+00 0.000000e+00 -8.100000e+01
      vertex   9.187184e-01 0.000000e+00 -8.068251e+01
      vertex   1.169170e+00 0.000000e+00 -8.081926e+01
    endloop
  endfacet
  facet normal 0.000000e+00 -1.000000e+00 0.000000e+00
    outer loop
      vertex   1.169170e+00 0.000000e+00 -8.081926e+01
      vertex   1.436535e+00 0.000000e+00 -8.091899e+01
      vertex   2.000000e+00 0.000000e+00 -8.100000e+01
    endloop
  endfacet
  facet normal 0.000000e+00 -1.000000e+00 0.000000e+00
    outer loop
      vertex   2.000000e+00 0.000000e+00 -8.100000e+01
      vertex   1.436535e+00 0.000000e+00 -8.091899e+01
      vertex   1.715370e+00 0.000000e+00 -8.097964e+01
    endloop
  endfacet
  facet normal -0.000000e+00 -1.000000e+00 0.000000e+00
    outer loop
      vertex   7.928463e+01 0.000000e+00 -8.097964e+01
      vertex   7.956347e+01 0.000000e+00 -8.091899e+01
      vertex   7.900000e+01 0.000000e+00 -8.100000e+01
    endloop
  endfacet
  facet normal 0.000000e+00 -1.000000e+00 0.000000e+00
    outer loop
      vertex   7.900000e+01 0.000000e+00 -8.100000e+01
      vertex   7.956347e+01 0.000000e+00 -8.091899e+01
      vertex   7.983083e+01 0.000000e+00 -8.081926e+01
    endloop
  endfacet
  facet normal 0.000000e+00 -1.000000e+00 0.000000e+00
    outer loop
      vertex   7.900000e+01 0.000000e+00 -8.100000e+01
      vertex   7.983083e+01 0.000000e+00 -8.081926e+01
      vertex   8.008128e+01 0.000000e+00 -8.068251e+01
    endloop
  endfacet
  facet normal -0.000000e+00 -1.000000e+00 0.000000e+00
    outer loop
      vertex   8.008128e+01 0.000000e+00 -8.068251e+01
      vertex   8.030972e+01 0.000000e+00 -8.051150e+01
      vertex   7.900000e+01 0.000000e+00 -8.100000e+01
    endloop
  endfacet
  facet normal 0.000000e+00 -1.000000e+00 0.000000e+00
    outer loop
      vertex   7.900000e+01 0.000000e+00 -8.100000e+01
      vertex   8.030972e+01 0.000000e+00 -8.051150e+01
      vertex   8.051150e+01 0.000000e+00 -8.030972e+01
    endloop
  endfacet
  facet normal 0.000000e+00 -1.000000e+00 0.000000e+00
    outer loop
      vertex   7.900000e+01 0.000000e+00 -8.100000e+01
      vertex   8.051150e+01 0.000000e+00 -8.030972e+01
      vertex   8.068251e+01 0.000000e+00 -8.008128e+01
    endloop
  endfacet
  facet normal -0.000000e+00 -1.000000e+00 0.000000e+00
    outer loop
      vertex   8.068251e+01 0.000000e+00 -8.008128e+01
      vertex   8.081926e+01 0.000000e+00 -7.983083e+01
      vertex   7.900000e+01 0.000000e+00 -8.100000e+01
    endloop
  endfacet
  facet normal 0.000000e+00 -1.000000e+00 0.000000e+00
    outer loop
      vertex   7.900000e+01 0.000000e+00 -8.100000e+01
      vertex   8.081926e+01 0.000000e+00 -7.983083e+01
      vertex   8.091899e+01 0.000000e+00 -7.956347e+01
    endloop
  endfacet
  facet normal 0.000000e+00 -1.000000e+00 0.000000e+00
    outer loop
      vertex   7.900000e+01 0.000000e+00 -8.100000e+01
      vertex   8.091899e+01 0.000000e+00 -7.956347e+01
      vertex   8.097964e+01 0.000000e+00 -7.928463e+01
    endloop
  endfacet
  facet normal -0.000000e+00 -1.000000e+00 0.000000e+00
    outer loop
      vertex   8.097964e+01 0.000000e+00 -7.928463e+01
      vertex   8.100000e+01 0.000000e+00 -7.900000e+01
      vertex   7.900000e+01 0.000000e+00 -8.100000e+01
    endloop
  endfacet
  facet normal -0.000000e+00 -1.000000e+00 -0.000000e+00
    outer loop
      vertex   8.097964e+01 0.000000e+00 -1.715370e+00
      vertex   8.091899e+01 0.000000e+00 -1.436535e+00
      vertex   8.100000e+01 0.000000e+00 -2.000000e+00
    endloop
  endfacet
  facet normal 0.000000e+00 -1.000000e+00 0.000000e+00
    outer loop
      vertex   8.100000e+01 0.000000e+00 -2.000000e+00
      vertex   8.091899e+01 0.000000e+00 -1.436535e+00
      vertex   8.081926e+01 0.000000e+00 -1.169170e+00
    endloop
  endfacet
  facet normal 0.000000e+00 -1.000000e+00 0.000000e+00
    outer loop
      vertex   8.100000e+01 0.000000e+00 -2.000000e+00
      vertex   8.081926e+01 0.000000e+00 -1.169170e+00
      vertex   8.068251e+01 0.000000e+00 -9.187184e-01
    endloop
  endfacet
  facet normal -0.000000e+00 -1.000000e+00 -0.000000e+00
    outer loop
      vertex   8.068251e+01 0.000000e+00 -9.187184e-01
      vertex   8.051150e+01 0.000000e+00 -6.902785e-01
      vertex   8.100000e+01 0.000000e+00 -2.000000e+00
    endloop
  endfacet
  facet normal 0.000000e+00 -1.000000e+00 0.000000e+00
    outer loop
      vertex   8.100000e+01 0.000000e+00 -2.000000e+00
      vertex   8.051150e+01 0.000000e+00 -6.902785e-01
      vertex   8.030972e+01 0.000000e+00 -4.885009e-01
    endloop
  endfacet
  facet normal 0.000000e+00 -1.000000e+00 0.000000e+00
    outer loop
      vertex   8.100000e+01 0.000000e+00 -2.000000e+00
      vertex   8.030972e+01 0.000000e+00 -4.885009e-01
      vertex   8.008128e+01 0.000000e+00 -3.174929e-01
    endloop
  endfacet
  facet normal -0.000000e+00 -1.000000e+00 -0.000000e+00
    outer loop
      vertex   8.008128e+01 0.000000e+00 -3.174929e-01
      vertex   7.983083e+01 0.000000e+00 -1.807360e-01
      vertex   8.100000e+01 0.000000e+00 -2.000000e+00
    endloop
  endfacet
  facet normal 0.000000e+00 -1.000000e+00 0.000000e+00
    outer loop
      vertex   8.100000e+01 0.000000e+00 -2.000000e+00
      vertex   7.983083e+01 0.000000e+00 -1.807360e-01
      vertex   7.956347e+01 0.000000e+00 -8.101405e-02
    endloop
  endfacet
  facet normal 0.000000e+00 -1.000000e+00 0.000000e+00
    outer loop
      vertex   8.100000e+01 0.000000e+00 -2.000000e+00
      vertex   7.956347e+01 0.000000e+00 -8.101405e-02
      vertex   7.928463e+01 0.000000e+00 -2.035712e-02
    endloop
  endfacet
  facet normal -0.000000e+00 -1.000000e+00 -0.000000e+00
    outer loop
      vertex   7.928463e+01 0.000000e+00 -2.035712e-02
      vertex   7.900000e+01 0.000000e+00 0.000000e+00
      vertex   8.100000e+01 0.000000e+00 -2.000000e+00
    endloop
  endfacet
  facet normal 0.000000e+00 -1.000000e+00 0.000000e+00
    outer loop
      vertex   8.100000e+01 0.000000e+00 -2.000000e+00
      vertex   7.900000e+01 0.000000e+00 0.000000e+00
      vertex   2.000000e+00 0.000000e+00 0.000000e+00
    endloop
  endfacet
endsolid
